<mxfile host="app.diagrams.net" modified="2022-11-14T13:27:10.259Z" agent="5.0 (Windows NT 10.0; Win64; x64) AppleWebKit/537.36 (KHTML, like Gecko) Chrome/106.0.0.0 Safari/537.36 OPR/92.0.0.0" etag="37gCTnfHEIeqWL8TF2Sv" version="20.5.3" type="github">
  <diagram id="C5RBs43oDa-KdzZeNtuy" name="Page-1">
    <mxGraphModel dx="1719" dy="847" grid="1" gridSize="10" guides="1" tooltips="1" connect="1" arrows="1" fold="1" page="1" pageScale="1" pageWidth="827" pageHeight="1169" math="0" shadow="0">
      <root>
        <mxCell id="WIyWlLk6GJQsqaUBKTNV-0" />
        <mxCell id="WIyWlLk6GJQsqaUBKTNV-1" parent="WIyWlLk6GJQsqaUBKTNV-0" />
        <mxCell id="zkfFHV4jXpPFQw0GAbJ--0" value="Animals" style="swimlane;fontStyle=2;align=center;verticalAlign=top;childLayout=stackLayout;horizontal=1;startSize=26;horizontalStack=0;resizeParent=1;resizeLast=0;collapsible=1;marginBottom=0;rounded=0;shadow=0;strokeWidth=1;" parent="WIyWlLk6GJQsqaUBKTNV-1" vertex="1">
          <mxGeometry x="334" width="160" height="138" as="geometry">
            <mxRectangle x="230" y="140" width="160" height="26" as="alternateBounds" />
          </mxGeometry>
        </mxCell>
        <mxCell id="zkfFHV4jXpPFQw0GAbJ--1" value="-type name : String" style="text;align=left;verticalAlign=top;spacingLeft=4;spacingRight=4;overflow=hidden;rotatable=0;points=[[0,0.5],[1,0.5]];portConstraint=eastwest;" parent="zkfFHV4jXpPFQw0GAbJ--0" vertex="1">
          <mxGeometry y="26" width="160" height="14" as="geometry" />
        </mxCell>
        <mxCell id="zkfFHV4jXpPFQw0GAbJ--2" value="-weight : int" style="text;align=left;verticalAlign=top;spacingLeft=4;spacingRight=4;overflow=hidden;rotatable=0;points=[[0,0.5],[1,0.5]];portConstraint=eastwest;rounded=0;shadow=0;html=0;" parent="zkfFHV4jXpPFQw0GAbJ--0" vertex="1">
          <mxGeometry y="40" width="160" height="16" as="geometry" />
        </mxCell>
        <mxCell id="zkfFHV4jXpPFQw0GAbJ--3" value="-age : int" style="text;align=left;verticalAlign=top;spacingLeft=4;spacingRight=4;overflow=hidden;rotatable=0;points=[[0,0.5],[1,0.5]];portConstraint=eastwest;rounded=0;shadow=0;html=0;" parent="zkfFHV4jXpPFQw0GAbJ--0" vertex="1">
          <mxGeometry y="56" width="160" height="14" as="geometry" />
        </mxCell>
        <mxCell id="zkfFHV4jXpPFQw0GAbJ--4" value="" style="line;html=1;strokeWidth=1;align=left;verticalAlign=middle;spacingTop=-1;spacingLeft=3;spacingRight=3;rotatable=0;labelPosition=right;points=[];portConstraint=eastwest;" parent="zkfFHV4jXpPFQw0GAbJ--0" vertex="1">
          <mxGeometry y="70" width="160" height="20" as="geometry" />
        </mxCell>
        <mxCell id="zkfFHV4jXpPFQw0GAbJ--5" value="getDosage() : int&#xa;getFeedSchedule() : int" style="text;align=left;verticalAlign=top;spacingLeft=4;spacingRight=4;overflow=hidden;rotatable=0;points=[[0,0.5],[1,0.5]];portConstraint=eastwest;" parent="zkfFHV4jXpPFQw0GAbJ--0" vertex="1">
          <mxGeometry y="90" width="160" height="40" as="geometry" />
        </mxCell>
        <mxCell id="zkfFHV4jXpPFQw0GAbJ--6" value="Equine" style="swimlane;fontStyle=0;align=center;verticalAlign=top;childLayout=stackLayout;horizontal=1;startSize=26;horizontalStack=0;resizeParent=1;resizeLast=0;collapsible=1;marginBottom=0;rounded=0;shadow=0;strokeWidth=1;" parent="WIyWlLk6GJQsqaUBKTNV-1" vertex="1">
          <mxGeometry x="50" y="670" width="175" height="130" as="geometry">
            <mxRectangle x="130" y="380" width="160" height="26" as="alternateBounds" />
          </mxGeometry>
        </mxCell>
        <mxCell id="zkfFHV4jXpPFQw0GAbJ--9" value="" style="line;html=1;strokeWidth=1;align=left;verticalAlign=middle;spacingTop=-1;spacingLeft=3;spacingRight=3;rotatable=0;labelPosition=right;points=[];portConstraint=eastwest;" parent="zkfFHV4jXpPFQw0GAbJ--6" vertex="1">
          <mxGeometry y="26" width="175" height="34" as="geometry" />
        </mxCell>
        <mxCell id="d-lNwXOt2hXXqg7IElgq-30" value="getDosage() : int" style="text;html=1;align=center;verticalAlign=middle;resizable=0;points=[];autosize=1;strokeColor=none;fillColor=none;fontSize=16;" vertex="1" parent="zkfFHV4jXpPFQw0GAbJ--6">
          <mxGeometry y="60" width="175" height="30" as="geometry" />
        </mxCell>
        <mxCell id="d-lNwXOt2hXXqg7IElgq-31" value="getFeedSchedule(): int" style="text;html=1;align=center;verticalAlign=middle;resizable=0;points=[];autosize=1;strokeColor=none;fillColor=none;fontSize=16;" vertex="1" parent="zkfFHV4jXpPFQw0GAbJ--6">
          <mxGeometry y="90" width="175" height="30" as="geometry" />
        </mxCell>
        <mxCell id="zkfFHV4jXpPFQw0GAbJ--12" value="" style="endArrow=block;endSize=10;endFill=0;shadow=0;strokeWidth=1;rounded=0;edgeStyle=elbowEdgeStyle;elbow=vertical;" parent="WIyWlLk6GJQsqaUBKTNV-1" source="zkfFHV4jXpPFQw0GAbJ--6" target="zkfFHV4jXpPFQw0GAbJ--0" edge="1">
          <mxGeometry width="160" relative="1" as="geometry">
            <mxPoint x="200" y="203" as="sourcePoint" />
            <mxPoint x="200" y="203" as="targetPoint" />
            <Array as="points">
              <mxPoint x="380" y="180" />
              <mxPoint x="130" y="180" />
            </Array>
          </mxGeometry>
        </mxCell>
        <mxCell id="zkfFHV4jXpPFQw0GAbJ--13" value="Felines" style="swimlane;fontStyle=0;align=center;verticalAlign=top;childLayout=stackLayout;horizontal=1;startSize=26;horizontalStack=0;resizeParent=1;resizeLast=0;collapsible=1;marginBottom=0;rounded=0;shadow=0;strokeWidth=1;" parent="WIyWlLk6GJQsqaUBKTNV-1" vertex="1">
          <mxGeometry x="334" y="240" width="186" height="140" as="geometry">
            <mxRectangle x="340" y="380" width="170" height="26" as="alternateBounds" />
          </mxGeometry>
        </mxCell>
        <mxCell id="zkfFHV4jXpPFQw0GAbJ--15" value="" style="line;html=1;strokeWidth=1;align=left;verticalAlign=middle;spacingTop=-1;spacingLeft=3;spacingRight=3;rotatable=0;labelPosition=right;points=[];portConstraint=eastwest;" parent="zkfFHV4jXpPFQw0GAbJ--13" vertex="1">
          <mxGeometry y="26" width="186" height="20" as="geometry" />
        </mxCell>
        <mxCell id="d-lNwXOt2hXXqg7IElgq-1" value="Rodents" style="swimlane;fontStyle=0;align=center;verticalAlign=top;childLayout=stackLayout;horizontal=1;startSize=26;horizontalStack=0;resizeParent=1;resizeLast=0;collapsible=1;marginBottom=0;rounded=0;shadow=0;strokeWidth=1;" vertex="1" parent="WIyWlLk6GJQsqaUBKTNV-1">
          <mxGeometry x="627" y="670" width="200" height="147" as="geometry">
            <mxRectangle x="340" y="380" width="170" height="26" as="alternateBounds" />
          </mxGeometry>
        </mxCell>
        <mxCell id="d-lNwXOt2hXXqg7IElgq-3" value="" style="line;html=1;strokeWidth=1;align=left;verticalAlign=middle;spacingTop=-1;spacingLeft=3;spacingRight=3;rotatable=0;labelPosition=right;points=[];portConstraint=eastwest;" vertex="1" parent="d-lNwXOt2hXXqg7IElgq-1">
          <mxGeometry y="26" width="200" height="2" as="geometry" />
        </mxCell>
        <mxCell id="d-lNwXOt2hXXqg7IElgq-39" value="" style="line;html=1;strokeWidth=1;align=left;verticalAlign=middle;spacingTop=-1;spacingLeft=3;spacingRight=3;rotatable=0;labelPosition=right;points=[];portConstraint=eastwest;" vertex="1" parent="d-lNwXOt2hXXqg7IElgq-1">
          <mxGeometry y="28" width="200" height="34" as="geometry" />
        </mxCell>
        <mxCell id="d-lNwXOt2hXXqg7IElgq-37" value="getDosage() : int" style="text;html=1;align=center;verticalAlign=middle;resizable=0;points=[];autosize=1;strokeColor=none;fillColor=none;fontSize=16;" vertex="1" parent="d-lNwXOt2hXXqg7IElgq-1">
          <mxGeometry y="62" width="200" height="30" as="geometry" />
        </mxCell>
        <mxCell id="d-lNwXOt2hXXqg7IElgq-38" value="getFeedSchedule(): int" style="text;html=1;align=center;verticalAlign=middle;resizable=0;points=[];autosize=1;strokeColor=none;fillColor=none;fontSize=16;" vertex="1" parent="d-lNwXOt2hXXqg7IElgq-1">
          <mxGeometry y="92" width="200" height="30" as="geometry" />
        </mxCell>
        <mxCell id="d-lNwXOt2hXXqg7IElgq-22" value="" style="endArrow=block;endSize=10;endFill=0;shadow=0;strokeWidth=1;rounded=0;edgeStyle=elbowEdgeStyle;elbow=vertical;exitX=0.75;exitY=0;exitDx=0;exitDy=0;" edge="1" parent="WIyWlLk6GJQsqaUBKTNV-1" source="d-lNwXOt2hXXqg7IElgq-1">
          <mxGeometry width="160" relative="1" as="geometry">
            <mxPoint x="440" y="592" as="sourcePoint" />
            <mxPoint x="460" y="140" as="targetPoint" />
            <Array as="points">
              <mxPoint x="600" y="180" />
              <mxPoint x="590" y="180" />
              <mxPoint x="590" y="190" />
              <mxPoint x="740" y="180" />
            </Array>
          </mxGeometry>
        </mxCell>
        <mxCell id="d-lNwXOt2hXXqg7IElgq-24" value="" style="endArrow=block;endSize=10;endFill=0;shadow=0;strokeWidth=1;rounded=0;edgeStyle=elbowEdgeStyle;elbow=vertical;exitX=0.5;exitY=0;exitDx=0;exitDy=0;" edge="1" parent="WIyWlLk6GJQsqaUBKTNV-1" source="zkfFHV4jXpPFQw0GAbJ--13">
          <mxGeometry width="160" relative="1" as="geometry">
            <mxPoint x="410" y="210" as="sourcePoint" />
            <mxPoint x="414" y="140" as="targetPoint" />
            <Array as="points">
              <mxPoint x="490" y="210" />
              <mxPoint x="540.0000000000005" y="190" />
              <mxPoint x="540.0000000000005" y="200" />
              <mxPoint x="690.0000000000005" y="190" />
            </Array>
          </mxGeometry>
        </mxCell>
        <mxCell id="d-lNwXOt2hXXqg7IElgq-35" value="getDosage() : int" style="text;html=1;align=center;verticalAlign=middle;resizable=0;points=[];autosize=1;strokeColor=none;fillColor=none;fontSize=16;" vertex="1" parent="WIyWlLk6GJQsqaUBKTNV-1">
          <mxGeometry x="334" y="300" width="175" height="30" as="geometry" />
        </mxCell>
        <mxCell id="d-lNwXOt2hXXqg7IElgq-36" value="getFeedSchedule(): int" style="text;html=1;align=center;verticalAlign=middle;resizable=0;points=[];autosize=1;strokeColor=none;fillColor=none;fontSize=16;" vertex="1" parent="WIyWlLk6GJQsqaUBKTNV-1">
          <mxGeometry x="334" y="330" width="175" height="30" as="geometry" />
        </mxCell>
        <mxCell id="d-lNwXOt2hXXqg7IElgq-42" value="Extends" style="endArrow=block;endSize=16;endFill=0;html=1;rounded=0;fontSize=12;sourcePerimeterSpacing=8;targetPerimeterSpacing=8;curved=1;entryX=0.25;entryY=1;entryDx=0;entryDy=0;exitX=0.5;exitY=0;exitDx=0;exitDy=0;" edge="1" parent="WIyWlLk6GJQsqaUBKTNV-1" source="d-lNwXOt2hXXqg7IElgq-50" target="zkfFHV4jXpPFQw0GAbJ--13">
          <mxGeometry y="-13" width="160" relative="1" as="geometry">
            <mxPoint x="424.45199999999977" y="451.3520000000001" as="sourcePoint" />
            <mxPoint x="540" y="500" as="targetPoint" />
            <mxPoint y="1" as="offset" />
          </mxGeometry>
        </mxCell>
        <mxCell id="d-lNwXOt2hXXqg7IElgq-43" value="Extends" style="text;whiteSpace=wrap;html=1;fontSize=16;" vertex="1" parent="WIyWlLk6GJQsqaUBKTNV-1">
          <mxGeometry x="60" y="370" width="40" height="40" as="geometry" />
        </mxCell>
        <mxCell id="d-lNwXOt2hXXqg7IElgq-47" value="Extends" style="text;whiteSpace=wrap;html=1;fontSize=16;" vertex="1" parent="WIyWlLk6GJQsqaUBKTNV-1">
          <mxGeometry x="710" y="310" width="90" height="40" as="geometry" />
        </mxCell>
        <mxCell id="d-lNwXOt2hXXqg7IElgq-50" value="Felines" style="swimlane;fontStyle=0;align=center;verticalAlign=top;childLayout=stackLayout;horizontal=1;startSize=26;horizontalStack=0;resizeParent=1;resizeLast=0;collapsible=1;marginBottom=0;rounded=0;shadow=0;strokeWidth=1;" vertex="1" parent="WIyWlLk6GJQsqaUBKTNV-1">
          <mxGeometry x="170" y="464" width="186" height="140" as="geometry">
            <mxRectangle x="340" y="380" width="170" height="26" as="alternateBounds" />
          </mxGeometry>
        </mxCell>
        <mxCell id="d-lNwXOt2hXXqg7IElgq-51" value="" style="line;html=1;strokeWidth=1;align=left;verticalAlign=middle;spacingTop=-1;spacingLeft=3;spacingRight=3;rotatable=0;labelPosition=right;points=[];portConstraint=eastwest;" vertex="1" parent="d-lNwXOt2hXXqg7IElgq-50">
          <mxGeometry y="26" width="186" height="20" as="geometry" />
        </mxCell>
        <mxCell id="d-lNwXOt2hXXqg7IElgq-56" value="getDosage() : int" style="text;html=1;align=center;verticalAlign=middle;resizable=0;points=[];autosize=1;strokeColor=none;fillColor=none;fontSize=16;" vertex="1" parent="d-lNwXOt2hXXqg7IElgq-50">
          <mxGeometry y="46" width="186" height="30" as="geometry" />
        </mxCell>
        <mxCell id="d-lNwXOt2hXXqg7IElgq-57" value="getFeedSchedule(): int" style="text;html=1;align=center;verticalAlign=middle;resizable=0;points=[];autosize=1;strokeColor=none;fillColor=none;fontSize=16;" vertex="1" parent="d-lNwXOt2hXXqg7IElgq-50">
          <mxGeometry y="76" width="186" height="30" as="geometry" />
        </mxCell>
        <mxCell id="d-lNwXOt2hXXqg7IElgq-52" value="Felines" style="swimlane;fontStyle=0;align=center;verticalAlign=top;childLayout=stackLayout;horizontal=1;startSize=26;horizontalStack=0;resizeParent=1;resizeLast=0;collapsible=1;marginBottom=0;rounded=0;shadow=0;strokeWidth=1;" vertex="1" parent="WIyWlLk6GJQsqaUBKTNV-1">
          <mxGeometry x="380" y="464" width="186" height="140" as="geometry">
            <mxRectangle x="340" y="380" width="170" height="26" as="alternateBounds" />
          </mxGeometry>
        </mxCell>
        <mxCell id="d-lNwXOt2hXXqg7IElgq-53" value="" style="line;html=1;strokeWidth=1;align=left;verticalAlign=middle;spacingTop=-1;spacingLeft=3;spacingRight=3;rotatable=0;labelPosition=right;points=[];portConstraint=eastwest;" vertex="1" parent="d-lNwXOt2hXXqg7IElgq-52">
          <mxGeometry y="26" width="186" height="20" as="geometry" />
        </mxCell>
        <mxCell id="d-lNwXOt2hXXqg7IElgq-58" value="getDosage() : int" style="text;html=1;align=center;verticalAlign=middle;resizable=0;points=[];autosize=1;strokeColor=none;fillColor=none;fontSize=16;" vertex="1" parent="d-lNwXOt2hXXqg7IElgq-52">
          <mxGeometry y="46" width="186" height="30" as="geometry" />
        </mxCell>
        <mxCell id="d-lNwXOt2hXXqg7IElgq-59" value="getFeedSchedule(): int" style="text;html=1;align=center;verticalAlign=middle;resizable=0;points=[];autosize=1;strokeColor=none;fillColor=none;fontSize=16;" vertex="1" parent="d-lNwXOt2hXXqg7IElgq-52">
          <mxGeometry y="76" width="186" height="30" as="geometry" />
        </mxCell>
        <mxCell id="d-lNwXOt2hXXqg7IElgq-54" value="Felines" style="swimlane;fontStyle=0;align=center;verticalAlign=top;childLayout=stackLayout;horizontal=1;startSize=26;horizontalStack=0;resizeParent=1;resizeLast=0;collapsible=1;marginBottom=0;rounded=0;shadow=0;strokeWidth=1;" vertex="1" parent="WIyWlLk6GJQsqaUBKTNV-1">
          <mxGeometry x="580" y="464" width="186" height="140" as="geometry">
            <mxRectangle x="340" y="380" width="170" height="26" as="alternateBounds" />
          </mxGeometry>
        </mxCell>
        <mxCell id="d-lNwXOt2hXXqg7IElgq-55" value="" style="line;html=1;strokeWidth=1;align=left;verticalAlign=middle;spacingTop=-1;spacingLeft=3;spacingRight=3;rotatable=0;labelPosition=right;points=[];portConstraint=eastwest;" vertex="1" parent="d-lNwXOt2hXXqg7IElgq-54">
          <mxGeometry y="26" width="186" height="20" as="geometry" />
        </mxCell>
        <mxCell id="d-lNwXOt2hXXqg7IElgq-60" value="getDosage() : int" style="text;html=1;align=center;verticalAlign=middle;resizable=0;points=[];autosize=1;strokeColor=none;fillColor=none;fontSize=16;" vertex="1" parent="d-lNwXOt2hXXqg7IElgq-54">
          <mxGeometry y="46" width="186" height="30" as="geometry" />
        </mxCell>
        <mxCell id="d-lNwXOt2hXXqg7IElgq-61" value="getFeedSchedule(): int" style="text;html=1;align=center;verticalAlign=middle;resizable=0;points=[];autosize=1;strokeColor=none;fillColor=none;fontSize=16;" vertex="1" parent="d-lNwXOt2hXXqg7IElgq-54">
          <mxGeometry y="76" width="186" height="30" as="geometry" />
        </mxCell>
        <mxCell id="d-lNwXOt2hXXqg7IElgq-62" value="Horses" style="swimlane;fontStyle=0;align=center;verticalAlign=top;childLayout=stackLayout;horizontal=1;startSize=26;horizontalStack=0;resizeParent=1;resizeLast=0;collapsible=1;marginBottom=0;rounded=0;shadow=0;strokeWidth=1;" vertex="1" parent="WIyWlLk6GJQsqaUBKTNV-1">
          <mxGeometry y="870" width="170" height="130" as="geometry">
            <mxRectangle x="130" y="380" width="160" height="26" as="alternateBounds" />
          </mxGeometry>
        </mxCell>
        <mxCell id="d-lNwXOt2hXXqg7IElgq-63" value="" style="line;html=1;strokeWidth=1;align=left;verticalAlign=middle;spacingTop=-1;spacingLeft=3;spacingRight=3;rotatable=0;labelPosition=right;points=[];portConstraint=eastwest;" vertex="1" parent="d-lNwXOt2hXXqg7IElgq-62">
          <mxGeometry y="26" width="170" height="34" as="geometry" />
        </mxCell>
        <mxCell id="d-lNwXOt2hXXqg7IElgq-64" value="getDosage() : int" style="text;html=1;align=center;verticalAlign=middle;resizable=0;points=[];autosize=1;strokeColor=none;fillColor=none;fontSize=16;" vertex="1" parent="d-lNwXOt2hXXqg7IElgq-62">
          <mxGeometry y="60" width="170" height="30" as="geometry" />
        </mxCell>
        <mxCell id="d-lNwXOt2hXXqg7IElgq-65" value="getFeedSchedule(): int" style="text;html=1;align=center;verticalAlign=middle;resizable=0;points=[];autosize=1;strokeColor=none;fillColor=none;fontSize=16;" vertex="1" parent="d-lNwXOt2hXXqg7IElgq-62">
          <mxGeometry y="90" width="170" height="30" as="geometry" />
        </mxCell>
        <mxCell id="d-lNwXOt2hXXqg7IElgq-66" value="Donkeys" style="swimlane;fontStyle=0;align=center;verticalAlign=top;childLayout=stackLayout;horizontal=1;startSize=26;horizontalStack=0;resizeParent=1;resizeLast=0;collapsible=1;marginBottom=0;rounded=0;shadow=0;strokeWidth=1;" vertex="1" parent="WIyWlLk6GJQsqaUBKTNV-1">
          <mxGeometry x="230" y="870" width="170" height="130" as="geometry">
            <mxRectangle x="130" y="380" width="160" height="26" as="alternateBounds" />
          </mxGeometry>
        </mxCell>
        <mxCell id="d-lNwXOt2hXXqg7IElgq-67" value="" style="line;html=1;strokeWidth=1;align=left;verticalAlign=middle;spacingTop=-1;spacingLeft=3;spacingRight=3;rotatable=0;labelPosition=right;points=[];portConstraint=eastwest;" vertex="1" parent="d-lNwXOt2hXXqg7IElgq-66">
          <mxGeometry y="26" width="170" height="34" as="geometry" />
        </mxCell>
        <mxCell id="d-lNwXOt2hXXqg7IElgq-68" value="getDosage() : int" style="text;html=1;align=center;verticalAlign=middle;resizable=0;points=[];autosize=1;strokeColor=none;fillColor=none;fontSize=16;" vertex="1" parent="d-lNwXOt2hXXqg7IElgq-66">
          <mxGeometry y="60" width="170" height="30" as="geometry" />
        </mxCell>
        <mxCell id="d-lNwXOt2hXXqg7IElgq-69" value="getFeedSchedule(): int" style="text;html=1;align=center;verticalAlign=middle;resizable=0;points=[];autosize=1;strokeColor=none;fillColor=none;fontSize=16;" vertex="1" parent="d-lNwXOt2hXXqg7IElgq-66">
          <mxGeometry y="90" width="170" height="30" as="geometry" />
        </mxCell>
        <mxCell id="d-lNwXOt2hXXqg7IElgq-74" value="Rodents" style="swimlane;fontStyle=0;align=center;verticalAlign=top;childLayout=stackLayout;horizontal=1;startSize=26;horizontalStack=0;resizeParent=1;resizeLast=0;collapsible=1;marginBottom=0;rounded=0;shadow=0;strokeWidth=1;" vertex="1" parent="WIyWlLk6GJQsqaUBKTNV-1">
          <mxGeometry x="660" y="870" width="167" height="147" as="geometry">
            <mxRectangle x="340" y="380" width="170" height="26" as="alternateBounds" />
          </mxGeometry>
        </mxCell>
        <mxCell id="d-lNwXOt2hXXqg7IElgq-75" value="" style="line;html=1;strokeWidth=1;align=left;verticalAlign=middle;spacingTop=-1;spacingLeft=3;spacingRight=3;rotatable=0;labelPosition=right;points=[];portConstraint=eastwest;" vertex="1" parent="d-lNwXOt2hXXqg7IElgq-74">
          <mxGeometry y="26" width="167" height="2" as="geometry" />
        </mxCell>
        <mxCell id="d-lNwXOt2hXXqg7IElgq-76" value="" style="line;html=1;strokeWidth=1;align=left;verticalAlign=middle;spacingTop=-1;spacingLeft=3;spacingRight=3;rotatable=0;labelPosition=right;points=[];portConstraint=eastwest;" vertex="1" parent="d-lNwXOt2hXXqg7IElgq-74">
          <mxGeometry y="28" width="167" height="34" as="geometry" />
        </mxCell>
        <mxCell id="d-lNwXOt2hXXqg7IElgq-77" value="getDosage() : int" style="text;html=1;align=center;verticalAlign=middle;resizable=0;points=[];autosize=1;strokeColor=none;fillColor=none;fontSize=16;" vertex="1" parent="d-lNwXOt2hXXqg7IElgq-74">
          <mxGeometry y="62" width="167" height="30" as="geometry" />
        </mxCell>
        <mxCell id="d-lNwXOt2hXXqg7IElgq-78" value="getFeedSchedule(): int" style="text;html=1;align=center;verticalAlign=middle;resizable=0;points=[];autosize=1;strokeColor=none;fillColor=none;fontSize=16;" vertex="1" parent="d-lNwXOt2hXXqg7IElgq-74">
          <mxGeometry y="92" width="167" height="30" as="geometry" />
        </mxCell>
        <mxCell id="d-lNwXOt2hXXqg7IElgq-79" value="Rodents" style="swimlane;fontStyle=0;align=center;verticalAlign=top;childLayout=stackLayout;horizontal=1;startSize=26;horizontalStack=0;resizeParent=1;resizeLast=0;collapsible=1;marginBottom=0;rounded=0;shadow=0;strokeWidth=1;" vertex="1" parent="WIyWlLk6GJQsqaUBKTNV-1">
          <mxGeometry x="494" y="870" width="164" height="147" as="geometry">
            <mxRectangle x="340" y="380" width="170" height="26" as="alternateBounds" />
          </mxGeometry>
        </mxCell>
        <mxCell id="d-lNwXOt2hXXqg7IElgq-80" value="" style="line;html=1;strokeWidth=1;align=left;verticalAlign=middle;spacingTop=-1;spacingLeft=3;spacingRight=3;rotatable=0;labelPosition=right;points=[];portConstraint=eastwest;" vertex="1" parent="d-lNwXOt2hXXqg7IElgq-79">
          <mxGeometry y="26" width="164" height="2" as="geometry" />
        </mxCell>
        <mxCell id="d-lNwXOt2hXXqg7IElgq-81" value="" style="line;html=1;strokeWidth=1;align=left;verticalAlign=middle;spacingTop=-1;spacingLeft=3;spacingRight=3;rotatable=0;labelPosition=right;points=[];portConstraint=eastwest;" vertex="1" parent="d-lNwXOt2hXXqg7IElgq-79">
          <mxGeometry y="28" width="164" height="34" as="geometry" />
        </mxCell>
        <mxCell id="d-lNwXOt2hXXqg7IElgq-82" value="getDosage() : int" style="text;html=1;align=center;verticalAlign=middle;resizable=0;points=[];autosize=1;strokeColor=none;fillColor=none;fontSize=16;" vertex="1" parent="d-lNwXOt2hXXqg7IElgq-79">
          <mxGeometry y="62" width="164" height="30" as="geometry" />
        </mxCell>
        <mxCell id="d-lNwXOt2hXXqg7IElgq-83" value="getFeedSchedule(): int" style="text;html=1;align=center;verticalAlign=middle;resizable=0;points=[];autosize=1;strokeColor=none;fillColor=none;fontSize=16;" vertex="1" parent="d-lNwXOt2hXXqg7IElgq-79">
          <mxGeometry y="92" width="164" height="30" as="geometry" />
        </mxCell>
        <mxCell id="d-lNwXOt2hXXqg7IElgq-85" value="Zebras" style="swimlane;fontStyle=0;align=center;verticalAlign=top;childLayout=stackLayout;horizontal=1;startSize=26;horizontalStack=0;resizeParent=1;resizeLast=0;collapsible=1;marginBottom=0;rounded=0;shadow=0;strokeWidth=1;" vertex="1" parent="WIyWlLk6GJQsqaUBKTNV-1">
          <mxGeometry x="120" y="1017" width="170" height="130" as="geometry">
            <mxRectangle x="130" y="380" width="160" height="26" as="alternateBounds" />
          </mxGeometry>
        </mxCell>
        <mxCell id="d-lNwXOt2hXXqg7IElgq-86" value="" style="line;html=1;strokeWidth=1;align=left;verticalAlign=middle;spacingTop=-1;spacingLeft=3;spacingRight=3;rotatable=0;labelPosition=right;points=[];portConstraint=eastwest;" vertex="1" parent="d-lNwXOt2hXXqg7IElgq-85">
          <mxGeometry y="26" width="170" height="34" as="geometry" />
        </mxCell>
        <mxCell id="d-lNwXOt2hXXqg7IElgq-87" value="getDosage() : int" style="text;html=1;align=center;verticalAlign=middle;resizable=0;points=[];autosize=1;strokeColor=none;fillColor=none;fontSize=16;" vertex="1" parent="d-lNwXOt2hXXqg7IElgq-85">
          <mxGeometry y="60" width="170" height="30" as="geometry" />
        </mxCell>
        <mxCell id="d-lNwXOt2hXXqg7IElgq-88" value="getFeedSchedule(): int" style="text;html=1;align=center;verticalAlign=middle;resizable=0;points=[];autosize=1;strokeColor=none;fillColor=none;fontSize=16;" vertex="1" parent="d-lNwXOt2hXXqg7IElgq-85">
          <mxGeometry y="90" width="170" height="30" as="geometry" />
        </mxCell>
        <mxCell id="d-lNwXOt2hXXqg7IElgq-89" value="Extends" style="endArrow=block;endSize=16;endFill=0;html=1;rounded=0;fontSize=12;sourcePerimeterSpacing=8;targetPerimeterSpacing=8;curved=1;entryX=0.5;entryY=1;entryDx=0;entryDy=0;exitX=0.463;exitY=0.628;exitDx=0;exitDy=0;exitPerimeter=0;" edge="1" parent="WIyWlLk6GJQsqaUBKTNV-1" target="zkfFHV4jXpPFQw0GAbJ--6">
          <mxGeometry y="-13" width="160" relative="1" as="geometry">
            <mxPoint x="83.73000000000002" y="871.35" as="sourcePoint" />
            <mxPoint x="86.27800000000025" y="799.9979999999997" as="targetPoint" />
            <mxPoint y="1" as="offset" />
          </mxGeometry>
        </mxCell>
        <mxCell id="d-lNwXOt2hXXqg7IElgq-90" value="Extends" style="endArrow=block;endSize=16;endFill=0;html=1;rounded=0;fontSize=12;sourcePerimeterSpacing=8;targetPerimeterSpacing=8;curved=1;exitX=0.5;exitY=0;exitDx=0;exitDy=0;entryX=0.75;entryY=1;entryDx=0;entryDy=0;" edge="1" parent="WIyWlLk6GJQsqaUBKTNV-1" source="d-lNwXOt2hXXqg7IElgq-85" target="zkfFHV4jXpPFQw0GAbJ--6">
          <mxGeometry y="-13" width="160" relative="1" as="geometry">
            <mxPoint x="190" y="1007" as="sourcePoint" />
            <mxPoint x="196" y="800" as="targetPoint" />
            <mxPoint y="1" as="offset" />
            <Array as="points" />
          </mxGeometry>
        </mxCell>
        <mxCell id="d-lNwXOt2hXXqg7IElgq-91" value="Extends" style="endArrow=block;endSize=16;endFill=0;html=1;rounded=0;fontSize=12;sourcePerimeterSpacing=8;targetPerimeterSpacing=8;curved=1;entryX=1;entryY=1;entryDx=0;entryDy=0;exitX=0.5;exitY=0;exitDx=0;exitDy=0;" edge="1" parent="WIyWlLk6GJQsqaUBKTNV-1" source="d-lNwXOt2hXXqg7IElgq-66" target="zkfFHV4jXpPFQw0GAbJ--6">
          <mxGeometry y="-13" width="160" relative="1" as="geometry">
            <mxPoint x="310" y="750" as="sourcePoint" />
            <mxPoint x="312.54800000000023" y="678.6479999999997" as="targetPoint" />
            <mxPoint y="1" as="offset" />
          </mxGeometry>
        </mxCell>
        <mxCell id="d-lNwXOt2hXXqg7IElgq-92" value="Extends" style="endArrow=block;endSize=16;endFill=0;html=1;rounded=0;fontSize=12;sourcePerimeterSpacing=8;targetPerimeterSpacing=8;curved=1;entryX=0.25;entryY=1;entryDx=0;entryDy=0;exitX=0.5;exitY=0;exitDx=0;exitDy=0;" edge="1" parent="WIyWlLk6GJQsqaUBKTNV-1" source="d-lNwXOt2hXXqg7IElgq-79" target="d-lNwXOt2hXXqg7IElgq-1">
          <mxGeometry y="-13" width="160" relative="1" as="geometry">
            <mxPoint x="380" y="700" as="sourcePoint" />
            <mxPoint x="382.54800000000023" y="628.6479999999997" as="targetPoint" />
            <mxPoint y="1" as="offset" />
          </mxGeometry>
        </mxCell>
        <mxCell id="d-lNwXOt2hXXqg7IElgq-93" value="Extends" style="endArrow=block;endSize=16;endFill=0;html=1;rounded=0;fontSize=12;sourcePerimeterSpacing=8;targetPerimeterSpacing=8;curved=1;entryX=0.5;entryY=1;entryDx=0;entryDy=0;exitX=0.5;exitY=0;exitDx=0;exitDy=0;" edge="1" parent="WIyWlLk6GJQsqaUBKTNV-1" source="d-lNwXOt2hXXqg7IElgq-74" target="d-lNwXOt2hXXqg7IElgq-1">
          <mxGeometry x="-0.5958" y="-31" width="160" relative="1" as="geometry">
            <mxPoint x="530" y="760" as="sourcePoint" />
            <mxPoint x="532.5480000000002" y="688.6479999999997" as="targetPoint" />
            <mxPoint as="offset" />
          </mxGeometry>
        </mxCell>
        <mxCell id="d-lNwXOt2hXXqg7IElgq-94" value="Extends" style="endArrow=block;endSize=16;endFill=0;html=1;rounded=0;fontSize=12;sourcePerimeterSpacing=8;targetPerimeterSpacing=8;curved=1;entryX=0.5;entryY=1;entryDx=0;entryDy=0;exitX=0.5;exitY=0;exitDx=0;exitDy=0;" edge="1" parent="WIyWlLk6GJQsqaUBKTNV-1" source="d-lNwXOt2hXXqg7IElgq-52" target="zkfFHV4jXpPFQw0GAbJ--13">
          <mxGeometry y="-13" width="160" relative="1" as="geometry">
            <mxPoint x="440" y="420" as="sourcePoint" />
            <mxPoint x="442.54800000000023" y="348.6479999999997" as="targetPoint" />
            <mxPoint y="1" as="offset" />
          </mxGeometry>
        </mxCell>
        <mxCell id="d-lNwXOt2hXXqg7IElgq-95" value="Extends" style="endArrow=block;endSize=16;endFill=0;html=1;rounded=0;fontSize=12;sourcePerimeterSpacing=8;targetPerimeterSpacing=8;curved=1;entryX=0.75;entryY=1;entryDx=0;entryDy=0;exitX=0.5;exitY=0;exitDx=0;exitDy=0;" edge="1" parent="WIyWlLk6GJQsqaUBKTNV-1" source="d-lNwXOt2hXXqg7IElgq-54" target="zkfFHV4jXpPFQw0GAbJ--13">
          <mxGeometry y="-13" width="160" relative="1" as="geometry">
            <mxPoint x="650" y="380" as="sourcePoint" />
            <mxPoint x="652.5480000000002" y="308.6479999999997" as="targetPoint" />
            <mxPoint y="1" as="offset" />
          </mxGeometry>
        </mxCell>
      </root>
    </mxGraphModel>
  </diagram>
</mxfile>
